<mxfile host="app.diagrams.net" agent="Mozilla/5.0 (Windows NT 10.0; Win64; x64) AppleWebKit/537.36 (KHTML, like Gecko) Chrome/131.0.0.0 Safari/537.36" version="25.0.0">
  <diagram name="Halaman-1" id="6hFKaMvSzLctmSGD49en">
    <mxGraphModel dx="1050" dy="603" grid="1" gridSize="10" guides="1" tooltips="1" connect="1" arrows="1" fold="1" page="1" pageScale="1" pageWidth="827" pageHeight="1169" math="0" shadow="0">
      <root>
        <mxCell id="0" />
        <mxCell id="1" parent="0" />
        <mxCell id="99sGoV5rkg1zJ76fwqBK-7" style="edgeStyle=orthogonalEdgeStyle;rounded=0;orthogonalLoop=1;jettySize=auto;html=1;exitX=1;exitY=1;exitDx=0;exitDy=0;entryX=0.5;entryY=1;entryDx=0;entryDy=0;" edge="1" parent="1" source="99sGoV5rkg1zJ76fwqBK-1" target="99sGoV5rkg1zJ76fwqBK-2">
          <mxGeometry relative="1" as="geometry" />
        </mxCell>
        <mxCell id="99sGoV5rkg1zJ76fwqBK-8" value="Laporan Data Absensi Siswa" style="edgeLabel;html=1;align=center;verticalAlign=top;resizable=0;points=[];" vertex="1" connectable="0" parent="99sGoV5rkg1zJ76fwqBK-7">
          <mxGeometry x="-0.0109" relative="1" as="geometry">
            <mxPoint as="offset" />
          </mxGeometry>
        </mxCell>
        <mxCell id="99sGoV5rkg1zJ76fwqBK-11" style="edgeStyle=orthogonalEdgeStyle;rounded=0;orthogonalLoop=1;jettySize=auto;html=1;exitX=0;exitY=1;exitDx=0;exitDy=0;entryX=0.5;entryY=1;entryDx=0;entryDy=0;" edge="1" parent="1" source="99sGoV5rkg1zJ76fwqBK-1" target="99sGoV5rkg1zJ76fwqBK-3">
          <mxGeometry relative="1" as="geometry" />
        </mxCell>
        <mxCell id="99sGoV5rkg1zJ76fwqBK-12" value="Laporan Data Siswa,&amp;nbsp;&lt;div&gt;Laporan Absensi Siswa&lt;/div&gt;" style="edgeLabel;html=1;align=center;verticalAlign=top;resizable=0;points=[];" vertex="1" connectable="0" parent="99sGoV5rkg1zJ76fwqBK-11">
          <mxGeometry x="-0.1096" y="1" relative="1" as="geometry">
            <mxPoint as="offset" />
          </mxGeometry>
        </mxCell>
        <mxCell id="99sGoV5rkg1zJ76fwqBK-1" value="SISTEM INFORMASI ABSENSI SISWA" style="ellipse;whiteSpace=wrap;html=1;aspect=fixed;" vertex="1" parent="1">
          <mxGeometry x="320" y="320" width="160" height="160" as="geometry" />
        </mxCell>
        <mxCell id="99sGoV5rkg1zJ76fwqBK-9" style="edgeStyle=orthogonalEdgeStyle;rounded=0;orthogonalLoop=1;jettySize=auto;html=1;entryX=1;entryY=0;entryDx=0;entryDy=0;" edge="1" parent="1" source="99sGoV5rkg1zJ76fwqBK-2" target="99sGoV5rkg1zJ76fwqBK-1">
          <mxGeometry relative="1" as="geometry">
            <mxPoint x="660" y="320" as="targetPoint" />
            <Array as="points">
              <mxPoint x="660" y="343" />
            </Array>
          </mxGeometry>
        </mxCell>
        <mxCell id="99sGoV5rkg1zJ76fwqBK-10" value="Daftar Akun, Login, Input&amp;nbsp;&lt;div&gt;Data Absensi Siswa, Logout&lt;/div&gt;" style="edgeLabel;html=1;align=center;verticalAlign=bottom;resizable=0;points=[];" vertex="1" connectable="0" parent="99sGoV5rkg1zJ76fwqBK-9">
          <mxGeometry x="-0.0686" y="-4" relative="1" as="geometry">
            <mxPoint as="offset" />
          </mxGeometry>
        </mxCell>
        <mxCell id="99sGoV5rkg1zJ76fwqBK-2" value="GURU" style="rounded=0;whiteSpace=wrap;html=1;" vertex="1" parent="1">
          <mxGeometry x="600" y="365" width="120" height="60" as="geometry" />
        </mxCell>
        <mxCell id="99sGoV5rkg1zJ76fwqBK-13" style="edgeStyle=orthogonalEdgeStyle;rounded=0;orthogonalLoop=1;jettySize=auto;html=1;exitX=0.5;exitY=0;exitDx=0;exitDy=0;entryX=0;entryY=0;entryDx=0;entryDy=0;" edge="1" parent="1" source="99sGoV5rkg1zJ76fwqBK-3" target="99sGoV5rkg1zJ76fwqBK-1">
          <mxGeometry relative="1" as="geometry">
            <Array as="points">
              <mxPoint x="140" y="343" />
            </Array>
          </mxGeometry>
        </mxCell>
        <mxCell id="99sGoV5rkg1zJ76fwqBK-14" value="Login, Input Data Siswa, Logout" style="edgeLabel;html=1;align=center;verticalAlign=bottom;resizable=0;points=[];labelPosition=center;verticalLabelPosition=middle;" vertex="1" connectable="0" parent="99sGoV5rkg1zJ76fwqBK-13">
          <mxGeometry x="0.0256" y="-4" relative="1" as="geometry">
            <mxPoint x="7" y="-7" as="offset" />
          </mxGeometry>
        </mxCell>
        <mxCell id="99sGoV5rkg1zJ76fwqBK-3" value="ADMIN" style="rounded=0;whiteSpace=wrap;html=1;" vertex="1" parent="1">
          <mxGeometry x="80" y="365" width="120" height="60" as="geometry" />
        </mxCell>
        <mxCell id="99sGoV5rkg1zJ76fwqBK-5" style="edgeStyle=orthogonalEdgeStyle;rounded=0;orthogonalLoop=1;jettySize=auto;html=1;entryX=0.5;entryY=1;entryDx=0;entryDy=0;" edge="1" parent="1" source="99sGoV5rkg1zJ76fwqBK-4" target="99sGoV5rkg1zJ76fwqBK-1">
          <mxGeometry relative="1" as="geometry" />
        </mxCell>
        <mxCell id="99sGoV5rkg1zJ76fwqBK-6" value="Informasi Data Absensi Siswa" style="edgeLabel;html=1;align=left;verticalAlign=middle;resizable=0;points=[];" vertex="1" connectable="0" parent="99sGoV5rkg1zJ76fwqBK-5">
          <mxGeometry x="0.1467" y="-1" relative="1" as="geometry">
            <mxPoint as="offset" />
          </mxGeometry>
        </mxCell>
        <mxCell id="99sGoV5rkg1zJ76fwqBK-4" value="SISWA" style="rounded=0;whiteSpace=wrap;html=1;" vertex="1" parent="1">
          <mxGeometry x="340" y="540" width="120" height="60" as="geometry" />
        </mxCell>
      </root>
    </mxGraphModel>
  </diagram>
</mxfile>
